<svg width="548" height="196" viewBox="0 0 548 196" fill="none" xmlns="http://www.w3.org/2000/svg">
<rect y="0.153809" width="548" height="195" rx="16" fill="#0C111F"/>
<g clip-path="url(#clip0_171_1611)">
<path fill-rule="evenodd" clip-rule="evenodd" d="M112.901 66.7198C114.493 64.0481 113.263 61.8823 110.152 61.8823H90.4434C87.3334 61.8823 83.5216 64.0482 81.9296 66.7198L37.8569 140.682C36.2649 143.354 37.4955 145.519 40.6055 145.519H82.8397C85.9497 145.519 89.7614 143.354 91.3534 140.682L107.576 113.458C109.168 110.786 107.937 108.621 104.827 108.621H93.5644C90.4544 108.621 89.2238 106.455 90.8158 103.783L112.901 66.7198Z" fill="url(#paint0_linear_171_1611)"/>
<rect width="47.8653" height="59.1278" rx="2.81561" transform="matrix(1 0 -0.511893 0.859049 131.437 49.7885)" fill="url(#paint1_linear_171_1611)"/>
<rect width="36.6029" height="36.6029" rx="2.81561" transform="matrix(1 0 -0.511893 0.859049 119.371 107.838)" fill="#F5921E"/>
</g>
<path d="M224.27 122.654H213.136L238.26 73.5086H251.65L260.433 122.654H249.299L243.323 84.7391H242.94L224.27 122.654ZM226.814 103.336H253.114L251.722 111.447H225.422L226.814 103.336ZM278.743 137.244C275.415 137.244 272.639 136.788 270.416 135.876C268.208 134.98 266.528 133.756 265.376 132.204C264.241 130.653 263.617 128.909 263.505 126.973L273.199 125.701C273.375 126.453 273.711 127.149 274.207 127.789C274.719 128.429 275.447 128.941 276.391 129.325C277.351 129.709 278.591 129.901 280.11 129.901C282.334 129.901 284.27 129.357 285.918 128.269C287.565 127.197 288.581 125.397 288.965 122.87L290.069 116.127H289.637C289.029 117.151 288.197 118.118 287.141 119.03C286.102 119.942 284.83 120.686 283.326 121.262C281.838 121.838 280.118 122.126 278.167 122.126C275.383 122.126 272.967 121.486 270.92 120.206C268.888 118.91 267.416 116.935 266.504 114.279C265.608 111.607 265.496 108.232 266.168 104.152C266.872 99.977 268.136 96.4894 269.96 93.6898C271.784 90.8902 273.943 88.7945 276.439 87.4027C278.935 86.0109 281.534 85.315 284.238 85.315C286.302 85.315 287.965 85.6669 289.229 86.3709C290.509 87.0588 291.493 87.9226 292.181 88.9625C292.869 89.9863 293.357 90.9942 293.645 91.9861H294.052L295.06 85.7949H305.211L299.02 123.014C298.524 126.165 297.332 128.789 295.444 130.885C293.573 132.996 291.197 134.58 288.317 135.636C285.438 136.708 282.246 137.244 278.743 137.244ZM282.582 114.447C284.214 114.447 285.678 114.039 286.973 113.223C288.285 112.391 289.381 111.207 290.261 109.672C291.141 108.12 291.757 106.264 292.109 104.104C292.461 101.945 292.453 100.073 292.085 98.4892C291.733 96.8894 291.045 95.6496 290.021 94.7697C289.013 93.8898 287.685 93.4499 286.038 93.4499C284.342 93.4499 282.854 93.9058 281.574 94.8177C280.294 95.7136 279.231 96.9614 278.383 98.5612C277.551 100.161 276.967 102.009 276.631 104.104C276.279 106.232 276.263 108.072 276.583 109.624C276.919 111.159 277.583 112.351 278.575 113.199C279.566 114.031 280.902 114.447 282.582 114.447ZM323.904 123.374C320.129 123.374 317.001 122.606 314.522 121.07C312.042 119.518 310.298 117.327 309.29 114.495C308.298 111.647 308.13 108.28 308.786 104.392C309.426 100.601 310.714 97.2733 312.65 94.4097C314.602 91.5461 317.049 89.3144 319.993 87.7147C322.936 86.1149 326.216 85.315 329.831 85.315C332.263 85.315 334.463 85.7069 336.431 86.4908C338.414 87.2587 340.062 88.4266 341.374 89.9943C342.686 91.5461 343.582 93.4899 344.061 95.8255C344.557 98.1612 344.549 100.897 344.038 104.032L343.582 106.84H312.482L313.466 100.505H334.967C335.207 99.0331 335.111 97.7293 334.679 96.5934C334.247 95.4576 333.527 94.5697 332.519 93.9298C331.511 93.2739 330.271 92.9459 328.8 92.9459C327.296 92.9459 325.888 93.3139 324.576 94.0498C323.264 94.7857 322.161 95.7535 321.265 96.9534C320.385 98.1372 319.817 99.425 319.561 100.817L318.433 107.104C318.113 109.04 318.177 110.647 318.625 111.927C319.089 113.207 319.889 114.167 321.025 114.807C322.161 115.431 323.6 115.743 325.344 115.743C326.48 115.743 327.544 115.583 328.536 115.263C329.544 114.943 330.439 114.471 331.223 113.847C332.007 113.207 332.647 112.415 333.143 111.471L342.478 112.095C341.614 114.367 340.302 116.351 338.542 118.046C336.783 119.726 334.663 121.038 332.183 121.982C329.719 122.91 326.96 123.374 323.904 123.374ZM361.477 101.345L357.926 122.654H347.727L353.87 85.7949H363.589L362.533 92.298H362.941C364.109 90.1383 365.756 88.4346 367.884 87.1867C370.028 85.9389 372.468 85.315 375.203 85.315C377.763 85.315 379.899 85.8749 381.61 86.9948C383.338 88.1146 384.554 89.7064 385.258 91.7701C385.978 93.8338 386.098 96.3055 385.618 99.1851L381.682 122.654H371.46L375.083 101.009C375.451 98.7531 375.163 96.9934 374.219 95.7296C373.291 94.4497 371.796 93.8098 369.732 93.8098C368.356 93.8098 367.092 94.1058 365.94 94.6977C364.789 95.2896 363.821 96.1535 363.037 97.2893C362.269 98.4092 361.749 99.761 361.477 101.345ZM406.393 123.374C402.633 123.374 399.522 122.574 397.058 120.974C394.594 119.358 392.859 117.119 391.851 114.255C390.859 111.375 390.675 108.024 391.299 104.2C391.907 100.425 393.171 97.1214 395.09 94.2897C397.01 91.4581 399.45 89.2585 402.409 87.6907C405.369 86.1069 408.705 85.315 412.416 85.315C416.159 85.315 419.263 86.1229 421.727 87.7387C424.19 89.3384 425.926 91.5781 426.934 94.4577C427.942 97.3373 428.134 100.689 427.51 104.512C426.886 108.272 425.606 111.567 423.67 114.399C421.735 117.231 419.295 119.438 416.351 121.022C413.408 122.59 410.088 123.374 406.393 123.374ZM407.401 115.455C409.128 115.455 410.656 114.967 411.984 113.991C413.328 112.999 414.44 111.655 415.32 109.96C416.215 108.248 416.839 106.312 417.191 104.152C417.543 102.025 417.567 100.137 417.263 98.4892C416.959 96.8254 416.319 95.5136 415.344 94.5537C414.384 93.5938 413.064 93.1139 411.384 93.1139C409.656 93.1139 408.121 93.6098 406.777 94.6017C405.433 95.5776 404.321 96.9214 403.441 98.6331C402.561 100.345 401.945 102.289 401.593 104.464C401.258 106.576 401.234 108.464 401.522 110.128C401.809 111.775 402.441 113.079 403.417 114.039C404.393 114.983 405.721 115.455 407.401 115.455ZM444.955 101.345L441.404 122.654H431.205L437.349 85.7949H447.067L446.011 92.298H446.419C447.587 90.1383 449.235 88.4346 451.363 87.1867C453.506 85.9389 455.946 85.315 458.682 85.315C461.241 85.315 463.377 85.8749 465.089 86.9948C466.816 88.1146 468.032 89.7064 468.736 91.7701C469.456 93.8338 469.576 96.3055 469.096 99.1851L465.161 122.654H454.938L458.562 101.009C458.93 98.7531 458.642 96.9934 457.698 95.7296C456.77 94.4497 455.274 93.8098 453.21 93.8098C451.835 93.8098 450.571 94.1058 449.419 94.6977C448.267 95.2896 447.299 96.1535 446.515 97.2893C445.747 98.4092 445.227 99.761 444.955 101.345ZM489.871 123.374C486.096 123.374 482.968 122.606 480.489 121.07C478.009 119.518 476.265 117.327 475.257 114.495C474.265 111.647 474.097 108.28 474.753 104.392C475.393 100.601 476.681 97.2733 478.617 94.4097C480.569 91.5461 483.016 89.3144 485.96 87.7147C488.903 86.1149 492.183 85.315 495.798 85.315C498.23 85.315 500.43 85.7069 502.397 86.4908C504.381 87.2587 506.029 88.4266 507.341 89.9943C508.653 91.5461 509.548 93.4899 510.028 95.8255C510.524 98.1612 510.516 100.897 510.004 104.032L509.548 106.84H478.449L479.433 100.505H500.934C501.174 99.0331 501.078 97.7293 500.646 96.5934C500.214 95.4576 499.494 94.5697 498.486 93.9298C497.478 93.2739 496.238 92.9459 494.767 92.9459C493.263 92.9459 491.855 93.3139 490.543 94.0498C489.231 94.7857 488.127 95.7535 487.232 96.9534C486.352 98.1372 485.784 99.425 485.528 100.817L484.4 107.104C484.08 109.04 484.144 110.647 484.592 111.927C485.056 113.207 485.856 114.167 486.992 114.807C488.127 115.431 489.567 115.743 491.311 115.743C492.447 115.743 493.511 115.583 494.503 115.263C495.51 114.943 496.406 114.471 497.19 113.847C497.974 113.207 498.614 112.415 499.11 111.471L508.445 112.095C507.581 114.367 506.269 116.351 504.509 118.046C502.749 119.726 500.63 121.038 498.15 121.982C495.686 122.91 492.927 123.374 489.871 123.374Z" fill="white"/>
<defs>
<linearGradient id="paint0_linear_171_1611" x1="88.4709" y1="145.519" x2="46.6371" y2="116.021" gradientUnits="userSpaceOnUse">
<stop stop-color="#00796D"/>
<stop offset="1" stop-color="#38C682"/>
</linearGradient>
<linearGradient id="paint1_linear_171_1611" x1="47.8653" y1="59.1278" x2="-7.12454" y2="51.524" gradientUnits="userSpaceOnUse">
<stop stop-color="#00796D"/>
<stop offset="1" stop-color="#38C682"/>
</linearGradient>
<clipPath id="clip0_171_1611">
<rect width="146.412" height="95.7307" fill="white" transform="translate(34.4005 49.7885)"/>
</clipPath>
</defs>
</svg>
